<svg xmlns="http://www.w3.org/2000/svg" xmlns:xlink="http://www.w3.org/1999/xlink" viewBox="0,0,256,256" width="24px" height="24px" fill-rule="nonzero"><g transform=""><g fill="#339af0" fill-rule="nonzero" stroke="none" stroke-width="1" stroke-linecap="butt" stroke-linejoin="miter" stroke-miterlimit="10" stroke-dasharray="" stroke-dashoffset="0" font-family="none" font-weight="none" font-size="none" text-anchor="none" style="mix-blend-mode: normal"><g transform="scale(10.66667,10.66667)"><path d="M19,3h-14c-1.1,0 -2,0.9 -2,2v14c0,1.1 0.9,2 2,2h14c1.1,0 2,-0.9 2,-2v-14c0,-1.1 -0.9,-2 -2,-2zM9,15.7c0,0.7 -0.6,1.3 -1.3,1.3c-0.7,0 -1.3,-0.6 -1.3,-1.3v-4.5c0.1,-0.6 0.6,-1.2 1.3,-1.2c0.7,0 1.3,0.6 1.3,1.3zM7.7,8.7c-0.8,0 -1.3,-0.5 -1.3,-1.2c0,-0.7 0.5,-1.2 1.4,-1.2c0.8,0 1.3,0.5 1.3,1.2c0,0.7 -0.5,1.2 -1.4,1.2zM18,15.8c0,0.7 -0.5,1.2 -1.2,1.2c-0.7,0 -1.2,-0.5 -1.2,-1.2v-2.6c0,-1.1 -0.7,-1.2 -0.9,-1.2c-0.2,0 -1.1,0 -1.1,1.2v2.6c0,0.7 -0.5,1.2 -1.2,1.2h-0.1c-0.7,0 -1.2,-0.5 -1.2,-1.2v-4.5c0,-0.7 0.6,-1.3 1.3,-1.3c0.7,0 1.3,0.6 1.3,1.3c0,0 0.3,-1.3 2.2,-1.3c1.2,0 2.2,1 2.2,3.2v2.6z"></path></g></g></g></svg>